<svg xmlns="http://www.w3.org/2000/svg" width="1000" height="1000"><g clip-path="url(#a)"><path fill="#b85f4a" d="M0 0h1000v1000H0z"/><svg xmlns="http://www.w3.org/2000/svg" xmlns:svgjs="http://svgjs.dev/svgjs" xmlns:xlink="http://www.w3.org/1999/xlink" width="29" height="30" transform="matrix(26.66667 0 0 26.66667 113.333 100)"><svg xmlns="http://www.w3.org/2000/svg" width="29" height="30" fill="none" viewBox="0 0 29 30"><path fill="#fff" d="M2.505 7.833c.234-.308.541-.724.788-1.022.738-.82.834-.927 1.506-1.533.2-.16.436-.353.667-.534C3.76 6.156 3.543 7.72 5.108 8.686q-.002 0-.002.003c2.188 1.29 6.983 1.011 10.767-.642 3.664-1.6 5.017-3.888 3.208-5.248-1.587-.292-3.48-.325-5.483-.063l-.209-.336.173-.557c1.178-.104 2.296-.08 3.262.082.234.039.542.105.772.153.444.106.686.17.976.26.296.087.549.173.99.333.431.167.618.242.964.41q.582.26 1.128.587c2.882 1.773 1.09 5.01-3.996 7.227-5.07 2.21-11.533 2.558-14.429.805q-.001-.004-.013-.007h.005c-1.58-.98-1.747-2.403-.716-3.86m13.194 12.4-.041-1.993-1.447-1.575c-4.782 1.06-9.481.832-12.094-.674-.01-.01-.031-.02-.04-.03C.597 15.07.232 13.92.344 12.67c-.347 1.829-.375 2.489-.325 4.054.061.98.64 1.884 1.804 2.596l.009.01c2.786 1.695 8.59 2.063 13.867.903m6.035 2.28c-6.748 2.65-15.194 2.806-18.863.354a10.2 10.2 0 0 0 1.6 2.623c3.367 2.25 11.12 2.106 17.31-.325 3.625-1.421 5.911-3.312 6.511-5.085l.169-.534c.4-1.352.475-2.479.539-3.481-.073 2.176-2.693 4.651-7.266 6.449M6.838 27.616c.212.198.879.999 4.257 1.884.913.197 3.213.831 7.46-.09l.026-.379-.336-.515c-3.941.912-8.319.607-11.407-.9m9.751-15.761 3.588 2.661s.768.541.044.921c-.722.377-2.576 1.298-2.576 1.298l-1.83-.669-.918.4 1.62 1.376.012 2.142.952-.414.63-1.809s1.938-.73 2.707-1.005c.773-.269.67.651.67.651l-.38 4.389 1.264-.55 2.082-5.921s1.104-.525 1.88-.986c.776-.462 1.041-1.227 1.041-1.227s-.756-.319-1.627-.062c-.871.254-2.007.706-2.007.706l-5.891-2.449zm-7.591-8.42 2.436 1.898.665-.097-1.326-1.704s-.288-.352.1-.436c.39-.085 1.38-.283 1.38-.283l.743.582.5-.073-.567-.882.3-.979-.485.069-.573.745s-1.007.092-1.403.125c-.398.03-.227-.389-.227-.389L11.305 0l-.67.096-1.762 2.512s-.588.104-1.013.223c-.427.118-.652.44-.652.44s.313.248.754.239c.444-.009 1.036-.076 1.036-.076M21.037 27.83l-1.576-.806-.363.124.934.817s.199.166-.01.255l-.744.303-.44-.193-.263.093.367.382-.036.559.274-.092.204-.454s.554-.162.775-.219c.22-.059.17.194.17.194L20.121 30l.364-.124.714-1.595s.316-.121.542-.232a.7.7 0 0 0 .315-.316s-.2-.108-.448-.054c-.25.051-.571.152-.571.152"/></svg></svg></g><defs><clipPath id="a"><rect width="1000" height="1000" rx="500" ry="500"/></clipPath></defs></svg>