<svg xmlns="http://www.w3.org/2000/svg" width="34" height="34" fill="none"><g clip-path="url(#a)"><path fill="#F2785C" d="M33.461 6.923a13 13 0 0 1-3.75 1.028 6.55 6.55 0 0 0 2.871-3.615 13 13 0 0 1-4.148 1.584 6.534 6.534 0 0 0-11.13 5.96A18.55 18.55 0 0 1 3.838 5.054a6.53 6.53 0 0 0-.884 3.284 6.53 6.53 0 0 0 2.906 5.438 6.5 6.5 0 0 1-2.959-.818v.084a6.534 6.534 0 0 0 5.24 6.406 6.6 6.6 0 0 1-2.95.112 6.535 6.535 0 0 0 6.102 4.535 13.1 13.1 0 0 1-8.113 2.797q-.782 0-1.56-.091a18.47 18.47 0 0 0 10.013 2.935c12.017 0 18.587-9.953 18.587-18.585q0-.422-.02-.845a13.3 13.3 0 0 0 3.257-3.379z"/></g><defs><clipPath id="a"><path fill="#fff" d="M.308 0h33.654v33.654H.308z"/></clipPath></defs></svg>