<svg xmlns="http://www.w3.org/2000/svg" width="34" height="34" fill="none"><path fill="#F2785C" fill-rule="evenodd" d="M10.468 1.495c1.645-.076 2.17-.093 6.359-.093 4.19 0 4.714.019 6.358.093s2.765.336 3.747.716a7.6 7.6 0 0 1 2.731 1.781c.785.77 1.391 1.701 1.778 2.73.382.982.642 2.104.718 3.744.076 1.648.093 2.173.093 6.361 0 4.19-.019 4.714-.093 6.36-.074 1.64-.336 2.762-.718 3.743a7.6 7.6 0 0 1-1.778 2.733 7.6 7.6 0 0 1-2.731 1.778c-.982.382-2.104.643-3.744.718-1.647.076-2.171.093-6.361.093s-4.714-.018-6.36-.093c-1.64-.074-2.762-.336-3.743-.718a7.6 7.6 0 0 1-2.733-1.778 7.6 7.6 0 0 1-1.78-2.731c-.38-.982-.64-2.104-.716-3.744-.076-1.648-.093-2.172-.093-6.36 0-4.19.018-4.715.093-6.359.074-1.643.336-2.765.716-3.747a7.6 7.6 0 0 1 1.781-2.731 7.6 7.6 0 0 1 2.73-1.78c.982-.38 2.104-.64 3.744-.716zM23.06 4.27c-1.627-.074-2.115-.09-6.233-.09s-4.606.016-6.233.09c-1.505.069-2.32.32-2.865.532a4.8 4.8 0 0 0-1.774 1.152A4.8 4.8 0 0 0 4.803 7.73c-.212.544-.463 1.36-.532 2.865-.074 1.627-.09 2.115-.09 6.233s.016 4.606.09 6.233c.069 1.505.32 2.32.532 2.865.247.669.64 1.276 1.152 1.774A4.8 4.8 0 0 0 7.73 28.85c.544.212 1.36.463 2.865.532 1.627.074 2.113.09 6.233.09s4.606-.016 6.233-.09c1.505-.069 2.32-.32 2.865-.532a4.8 4.8 0 0 0 1.774-1.152 4.8 4.8 0 0 0 1.152-1.774c.212-.544.463-1.36.532-2.865.074-1.626.09-2.114.09-6.233s-.016-4.606-.09-6.233c-.069-1.505-.32-2.32-.532-2.865A4.8 4.8 0 0 0 27.7 5.955a4.8 4.8 0 0 0-1.774-1.152c-.544-.212-1.36-.463-2.865-.532m-8.203 17.311a5.145 5.145 0 1 0 3.704-9.6 5.146 5.146 0 0 0-3.704 9.6M11.22 11.221a7.928 7.928 0 1 1 11.212 11.212 7.928 7.928 0 0 1-11.212-11.212m15.293-1.142a1.876 1.876 0 1 0-2.575-2.728 1.876 1.876 0 0 0 2.575 2.728" clip-rule="evenodd"/></svg>